<svg width="80" height="80" viewBox="0 0 80 80" fill="none" xmlns="http://www.w3.org/2000/svg">
<g id="Icon/Field(2)">
<path id="Vector" d="M31.1141 18.333C29.0311 19.4867 27.2951 21.1772 26.0867 23.2289C24.8782 25.2806 24.2414 27.6185 24.2424 29.9997V49.9997C24.2417 52.3811 24.8791 54.7193 26.0881 56.771C27.2972 58.8228 29.0338 60.5131 31.1174 61.6663H24.2424C23.3584 61.6663 22.5105 61.3152 21.8854 60.69C21.2603 60.0649 20.9091 59.2171 20.9091 58.333V21.6663C20.9091 20.7823 21.2603 19.9344 21.8854 19.3093C22.5105 18.6842 23.3584 18.333 24.2424 18.333H31.1141Z" fill="#9B9B9B" fill-opacity="0.2"/>
<path id="Vector_2" d="M50.9092 25V28.3333H24.2425V25H50.9092ZM35.9092 33.3333V36.6667H24.2425V33.3333H35.9092ZM30.9092 41.6667V45H24.2425V41.6667H30.9092Z" fill="#94A3B8"/>
<path id="Vector_3" d="M22.5757 63.3337C21.3003 63.3337 20.0732 62.8465 19.1452 61.9715C18.2173 61.0966 17.6588 59.9001 17.584 58.627L17.5757 58.3337V21.667C17.5756 20.3916 18.0629 19.1645 18.9378 18.2366C19.8128 17.3086 21.0092 16.7501 22.2824 16.6753L22.5757 16.667H54.2424C55.5177 16.6669 56.7449 17.1542 57.6728 18.0291C58.6007 18.9041 59.1592 20.1005 59.234 21.3737L59.2424 21.667V31.8653H55.909V21.667C55.909 21.2588 55.7591 20.8648 55.4878 20.5597C55.2166 20.2546 54.8428 20.0598 54.4374 20.012L54.2424 20.0003H22.5757C22.1675 20.0004 21.7735 20.1503 21.4684 20.4215C21.1633 20.6928 20.9684 21.0666 20.9207 21.472L20.909 21.667V58.3337C20.9091 58.7419 21.0589 59.1359 21.3302 59.4409C21.6015 59.746 21.9753 59.9409 22.3807 59.9887L22.5757 60.0003H35.909V63.3337H22.5757Z" fill="#94A3B8"/>
<path id="Vector_4" d="M52.4253 37.2729C50.6742 37.2728 48.9403 37.6176 47.3225 38.2876C45.7047 38.9576 44.2347 39.9397 42.9965 41.1778C41.7583 42.416 40.7761 43.8859 40.106 45.5036C39.4358 47.1213 39.0909 48.8552 39.0909 50.6063C39.0909 52.3573 39.4358 54.0912 40.106 55.709C40.7761 57.3267 41.7583 58.7966 42.9965 60.0347C44.2347 61.2729 45.7047 62.255 47.3225 62.925C48.9403 63.595 50.6742 63.9398 52.4253 63.9396C55.9613 63.9393 59.3524 62.5345 61.8527 60.034C64.353 57.5336 65.7576 54.1423 65.7576 50.6063C65.7576 47.0702 64.353 43.679 61.8527 41.1786C59.3524 38.6781 55.9613 37.2732 52.4253 37.2729ZM52.4253 40.6063C55.0774 40.6063 57.621 41.6599 59.4963 43.5352C61.3717 45.4106 62.4253 47.9541 62.4253 50.6063C62.4253 53.2584 61.3717 55.802 59.4963 57.6774C57.621 59.5527 55.0774 60.6063 52.4253 60.6063C49.7731 60.6063 47.2296 59.5527 45.3542 57.6774C43.4788 55.802 42.4253 53.2584 42.4253 50.6063C42.4253 47.9541 43.4788 45.4106 45.3542 43.5352C47.2296 41.6599 49.7731 40.6063 52.4253 40.6063Z" fill="#94A3B8"/>
<path id="Vector_5" d="M45.7587 48.939C46.2007 48.939 46.6246 49.1146 46.9372 49.4271C47.2498 49.7397 47.4253 50.1636 47.4253 50.6056C47.4253 51.881 47.9126 53.1082 48.7875 54.0361C49.6624 54.964 50.8589 55.5225 52.132 55.5973L52.4253 55.6056C52.8674 55.6056 53.2913 55.7812 53.6039 56.0938C53.9164 56.4063 54.092 56.8303 54.092 57.2723C54.092 57.7143 53.9164 58.1382 53.6039 58.4508C53.2913 58.7634 52.8674 58.939 52.4253 58.939C50.2152 58.939 48.0956 58.061 46.5328 56.4982C44.97 54.9354 44.092 52.8158 44.092 50.6056C44.092 50.1636 44.2676 49.7397 44.5802 49.4271C44.8927 49.1146 45.3167 48.939 45.7587 48.939ZM62.882 56.349L66.652 60.1173C66.9616 60.4269 67.2072 60.7944 67.3747 61.1989C67.5423 61.6034 67.6285 62.037 67.6285 62.4748C67.6285 62.9126 67.5423 63.3462 67.3747 63.7507C67.2072 64.1552 66.9616 64.5227 66.652 64.8323C66.3424 65.1419 65.9749 65.3875 65.5704 65.555C65.1659 65.7226 64.7323 65.8088 64.2945 65.8088C63.8567 65.8088 63.4231 65.7226 63.0186 65.555C62.6141 65.3875 62.2466 65.1419 61.937 64.8323L57.7287 60.624" fill="#94A3B8"/>
</g>
</svg>
