<svg width="80" height="80" viewBox="0 0 80 80" fill="none" xmlns="http://www.w3.org/2000/svg">
<g id="Icon/Field(1)">
<path id="Vector" d="M32.205 18.6973C30.122 19.8509 28.386 21.5415 27.1775 23.5932C25.9691 25.6449 25.3323 27.9828 25.3333 30.3639V50.3639C25.3326 52.7454 25.9699 55.0836 27.179 57.1353C28.388 59.187 30.1247 60.8774 32.2083 62.0306H25.3333C24.4492 62.0306 23.6014 61.6794 22.9763 61.0543C22.3511 60.4292 22 59.5813 22 58.6973V22.0306C22 21.1465 22.3511 20.2987 22.9763 19.6736C23.6014 19.0485 24.4492 18.6973 25.3333 18.6973H32.205Z" fill="#9B9B9B" fill-opacity="0.2"/>
<path id="Vector_2" d="M52 52.0304V55.3638H25.3334V52.0304H52ZM32 43.6971V47.0304H25.3334V43.6971H32ZM32 35.3638V38.6971H25.3334V35.3638H32Z" fill="#94A3B8"/>
<path id="Vector_3" d="M23.6668 17.0306C22.3914 17.0305 21.1642 17.5178 20.2363 18.3927C19.3084 19.2677 18.7499 20.4641 18.6751 21.7373L18.6668 22.0306V58.6973C18.6667 59.9726 19.154 61.1998 20.0289 62.1277C20.9038 63.0556 22.1003 63.6141 23.3734 63.6889L23.6668 63.6973H55.3334C56.6088 63.6973 57.836 63.2101 58.7639 62.3351C59.6918 61.4602 60.2503 60.2638 60.3251 58.9906L60.3334 58.6973V38.6973H57.0001V58.6973C57.0001 59.1055 56.8502 59.4995 56.5789 59.8046C56.3077 60.1096 55.9339 60.3045 55.5284 60.3523L55.3334 60.3639H23.6668C23.2586 60.3639 22.8645 60.214 22.5595 59.9427C22.2544 59.6715 22.0595 59.2977 22.0118 58.8923L22.0001 58.6973V22.0306C22.0002 21.6224 22.15 21.2284 22.4213 20.9233C22.6926 20.6183 23.0664 20.4234 23.4718 20.3756L23.6668 20.3639H48.6668V17.0306H23.6668ZM67.6068 19.5906C68.2317 20.2157 68.5827 21.0634 68.5827 21.9473C68.5827 22.8311 68.2317 23.6788 67.6068 24.3039L65.2501 26.6606L57.0001 18.4106L59.3568 16.0539C59.6663 15.7443 60.0338 15.4986 60.4384 15.331C60.8429 15.1634 61.2764 15.0771 61.7143 15.0771C62.1521 15.0771 62.5857 15.1634 62.9902 15.331C63.3947 15.4986 63.7622 15.7443 64.0718 16.0539L67.6068 19.5906Z" fill="#94A3B8"/>
<path id="Vector_4" d="M57.9883 22.2566L39.6766 40.5682L40.0466 43.7349L43.21 44.1049L61.5233 25.7932L63.88 28.1499L44.4283 47.6032L37.04 46.7416L36.1783 39.3532L55.6333 19.8999L57.9883 22.2566Z" fill="#94A3B8"/>
</g>
</svg>
