<svg width="80" height="80" viewBox="0 0 80 80" fill="none" xmlns="http://www.w3.org/2000/svg">
<g id="Icon/Field(8)">
<path id="Vector" d="M36.6666 15C34.0145 15 31.4709 16.0536 29.5956 17.9289C27.7202 19.8043 26.6666 22.3478 26.6666 25V55C26.6666 57.6522 27.7202 60.1957 29.5956 62.0711C31.4709 63.9464 34.0145 65 36.6666 65H26.6666C25.7826 65 24.9347 64.6488 24.3096 64.0237C23.6845 63.3986 23.3333 62.5507 23.3333 61.6667V18.3333C23.3333 17.4493 23.6845 16.6014 24.3096 15.9763C24.9347 15.3512 25.7826 15 26.6666 15H36.6666Z" fill="#9B9B9B" fill-opacity="0.2"/>
<path id="Vector_2" d="M43.5533 13.3335H24.4867C21.8767 13.3335 20 15.8935 20 18.8468V61.1535C20 64.1068 21.8767 66.6668 24.4867 66.6668H55.5133C58.1233 66.6668 60 64.1068 60 61.1535V30.5718C60.0003 29.3031 59.5183 28.0817 58.6517 27.1552L47.205 14.9185C46.7375 14.4185 46.1723 14.0199 45.5445 13.7472C44.9166 13.4746 44.2395 13.3338 43.555 13.3335H43.5533ZM24.4867 16.6668H43.5533C43.7815 16.6669 44.0072 16.7139 44.2165 16.8047C44.4258 16.8956 44.6142 17.0285 44.77 17.1952L56.2167 29.4335C56.5056 29.7421 56.6665 30.149 56.6667 30.5718V61.1552C56.6667 62.4502 56.0183 63.3335 55.5133 63.3335H24.4867C23.9817 63.3335 23.3333 62.4502 23.3333 61.1535V18.8468C23.3333 17.5502 23.9817 16.6668 24.4867 16.6668Z" fill="#94A3B8"/>
<path id="Vector_3" d="M50 45.0002V48.3335H26.6667V45.0002H50ZM40 35.0002V38.3335H26.6667V35.0002H40ZM33.3334 25.0002V28.3335H26.6667V25.0002H33.3334ZM45 16.5552V26.2502C45 27.3168 45.86 28.2152 46.9867 28.3218L47.215 28.3335H57.255V31.6668H47.215C44.2684 31.6668 41.84 29.4185 41.675 26.5585L41.6667 26.2502V16.5552H45Z" fill="#94A3B8"/>
</g>
</svg>
