<svg width="24" height="24" viewBox="0 0 24 24" fill="none" xmlns="http://www.w3.org/2000/svg">
<g id="Icon">
<path id="Vector" d="M14.1818 5C15.7884 5 17.0909 6.31958 17.0909 7.94737C17.0909 8.48455 16.949 8.98817 16.7012 9.42187L20 9.42105V10.8947H18.5455V18.2632C18.5455 18.6701 18.2199 19 17.8182 19H6.18182C5.78016 19 5.45454 18.6701 5.45454 18.2632V10.8947H4V9.42105L7.29874 9.42187C7.05094 8.98817 6.90909 8.48455 6.90909 7.94737C6.90909 6.31958 8.21153 5 9.81818 5C10.6874 5 11.4676 5.38626 12.0007 5.99861C12.5324 5.38626 13.3126 5 14.1818 5ZM11.2727 10.8947H6.90909V17.5263H11.2727V10.8947ZM17.0909 10.8947H12.7273V17.5263H17.0909V10.8947ZM9.81818 6.47368C9.01485 6.47368 8.36363 7.13348 8.36363 7.94737C8.36363 8.72427 8.957 9.36075 9.70962 9.41701L9.81818 9.42105H11.2727V7.94737C11.2727 7.20931 10.7372 6.59798 10.0384 6.49046L9.92674 6.47772L9.81818 6.47368ZM14.1818 6.47368C13.415 6.47368 12.7868 7.07486 12.7313 7.83739L12.7273 7.94737V9.42105H14.1818C14.9486 9.42105 15.5768 8.81988 15.6324 8.05735L15.6364 7.94737C15.6364 7.13348 14.9852 6.47368 14.1818 6.47368Z" fill="#171717"/>
</g>
</svg>
