<svg width="80" height="80" viewBox="0 0 80 80" fill="none" xmlns="http://www.w3.org/2000/svg">
<g id="Icon/Field(6)">
<path id="Vector" d="M59.4923 23.1765L59.6412 23.0429L59.761 23.1765H59.4923ZM59.4923 23.1765V23.3765H59.6718L59.4923 23.1765ZM23.1065 24.0747L23.107 24.0752C26.3625 27.6797 28.808 30.8404 30.4388 33.6106C32.0708 36.383 32.8769 38.7479 32.8769 40.7647C32.8769 43.7535 31.6826 46.6201 29.5564 48.7338C27.4301 50.8476 24.546 52.0353 21.5385 52.0353C18.5309 52.0353 15.6468 50.8476 13.5205 48.7338C11.3943 46.6201 10.2 43.7535 10.2 40.7647C10.2 38.8302 10.9428 36.573 12.4467 33.9414C13.9495 31.3119 16.2034 28.3236 19.2047 24.9307C19.2049 24.9305 19.205 24.9303 19.2052 24.9302L20.6596 23.3101L20.9591 22.9765H20.5108H13.5385C13.2647 22.9765 13.0024 22.8684 12.8092 22.6763C12.616 22.4842 12.5077 22.224 12.5077 21.9529V19.8118C12.5077 19.2504 12.9709 18.7882 13.5385 18.7882H37.6923H37.8923V18.5882V15.2235C37.8923 14.6622 38.3555 14.2 38.9231 14.2H41.0769C41.6445 14.2 42.1077 14.6622 42.1077 15.2235V18.5882V18.7882H42.3077H66.4615C67.0291 18.7882 67.4923 19.2504 67.4923 19.8118V21.9529C67.4923 22.224 67.384 22.4842 67.1908 22.6763C66.9976 22.8684 66.7353 22.9765 66.4615 22.9765H59.4923H59.0441L59.3434 23.31L60.0296 24.0747L60.03 24.0752C63.2856 27.6797 65.7311 30.8411 67.3619 33.6118C68.9939 36.3846 69.8 38.7494 69.8 40.7647C69.8 43.7535 68.6057 46.6201 66.4795 48.7338C64.3532 50.8476 61.4691 52.0353 58.4615 52.0353C55.454 52.0353 52.5699 50.8476 50.4436 48.7338C48.3174 46.6201 47.1231 43.7535 47.1231 40.7647C47.1231 38.8302 47.8659 36.573 49.3698 33.9414C50.8726 31.3119 53.1265 28.3236 56.1277 24.9308C56.1279 24.9306 56.1281 24.9304 56.1283 24.9302L57.5827 23.3101L57.8822 22.9765H57.4338H42.3077H42.1077V23.1765V61.4118V61.6118H42.3077H51.1692C51.7368 61.6118 52.2 62.0739 52.2 62.6353V64.7765C52.2 65.0475 52.0917 65.3078 51.8985 65.4998C51.7053 65.6919 51.443 65.8 51.1692 65.8H28.9754C28.7016 65.8 28.4393 65.6919 28.2461 65.4998C28.0529 65.3078 27.9446 65.0475 27.9446 64.7765V62.6353C27.9446 62.0736 28.4051 61.6118 28.9754 61.6118H37.6923H37.8923V61.4118V23.1765V22.9765H37.6923H22.5692H22.1211L22.4204 23.31L23.1065 24.0747ZM20.3619 23.0429L20.242 23.1765H20.5108L20.3619 23.0429ZM21.6915 28.8289L21.5396 28.6482L21.3863 28.8279L21.1463 29.1093L21.1459 29.1098C18.9044 31.7549 17.2255 34.0691 16.1059 36.016C14.9898 37.9566 14.4154 39.5559 14.4154 40.7647C14.4154 42.6434 15.1661 44.445 16.5021 45.7731C17.838 47.1012 19.6497 47.8471 21.5385 47.8471C23.4272 47.8471 25.2389 47.1012 26.5748 45.7731C27.9108 44.445 28.6615 42.6434 28.6615 40.7647C28.6615 39.6129 28.1402 38.108 27.1273 36.2924C26.1113 34.4711 24.5879 32.3151 22.5541 29.8549L22.5531 29.8536L21.6915 28.8289ZM58.6146 28.8289L58.4626 28.6482L58.3094 28.8279L58.0694 29.1093L58.069 29.1098C55.8275 31.7549 54.1486 34.0691 53.0289 36.016C51.9129 37.9566 51.3385 39.5559 51.3385 40.7647C51.3385 42.6434 52.0892 44.445 53.4252 45.7731C54.7611 47.1012 56.5728 47.8471 58.4615 47.8471C60.3503 47.8471 62.162 47.1012 63.4979 45.7731C64.8339 44.445 65.5846 42.6434 65.5846 40.7647C65.5846 39.6129 65.0633 38.108 64.0504 36.2924C63.0344 34.4711 61.511 32.3151 59.4772 29.8549L59.4762 29.8536L58.6146 28.8289Z" fill="#94A3B8" stroke="white" stroke-width="0.4"/>
<path id="Vector_2" d="M19.3927 38.2752C19.7139 38.2702 20.0239 38.3931 20.2545 38.6166C20.4851 38.8402 20.6174 39.1462 20.6224 39.4674C20.6367 40.394 21.0045 41.2801 21.6506 41.9444C22.2967 42.6088 23.1722 43.0011 24.0981 43.0411L24.3113 43.0439C24.6325 43.0389 24.9424 43.1617 25.173 43.3853C25.4036 43.6089 25.536 43.9149 25.541 44.2361C25.5459 44.5572 25.4231 44.8672 25.1995 45.0978C24.976 45.3284 24.6699 45.4607 24.3488 45.4657C22.743 45.4906 21.1932 44.8765 20.0401 43.7586C18.8871 42.6407 18.2254 41.1106 18.2006 39.5049C18.1956 39.1837 18.3184 38.8737 18.542 38.6431C18.7656 38.4125 19.0716 38.2802 19.3927 38.2752Z" fill="#94A3B8"/>
<path id="Vector_3" d="M53.0291 38.2752C53.3502 38.2702 53.6602 38.3931 53.8908 38.6166C54.1214 38.8402 54.2538 39.1462 54.2587 39.4674C54.273 40.394 54.6408 41.2801 55.2869 41.9444C55.9331 42.6088 56.8086 43.0011 57.7344 43.0411L57.9477 43.0439C58.2688 43.0389 58.5788 43.1617 58.8094 43.3853C59.04 43.6089 59.1723 43.9149 59.1773 44.2361C59.1823 44.5572 59.0595 44.8672 58.8359 45.0978C58.6123 45.3284 58.3063 45.4607 57.9851 45.4657C56.3794 45.4906 54.8295 44.8765 53.6765 43.7586C52.5235 42.6407 51.8618 41.1106 51.8369 39.5049C51.8319 39.1837 51.9548 38.8737 52.1783 38.6431C52.4019 38.4125 52.7079 38.2802 53.0291 38.2752Z" fill="#94A3B8"/>
</g>
</svg>
