<svg width="80" height="80" viewBox="0 0 80 80" fill="none" xmlns="http://www.w3.org/2000/svg">
<g id="Icon/Field(4)">
<path id="Vector" d="M30.205 18.3335C28.122 19.4871 26.386 21.1777 25.1776 23.2294C23.9691 25.2811 23.3323 27.619 23.3333 30.0002V50.0002C23.3326 52.3816 23.97 54.7198 25.179 56.7715C26.3881 58.8233 28.1247 60.5136 30.2083 61.6668H23.3333C22.4493 61.6668 21.6014 61.3156 20.9763 60.6905C20.3512 60.0654 20 59.2176 20 58.3335V21.6668C20 20.7828 20.3512 19.9349 20.9763 19.3098C21.6014 18.6847 22.4493 18.3335 23.3333 18.3335H30.205Z" fill="#9B9B9B" fill-opacity="0.2"/>
<path id="Vector_2" d="M50 25V28.3333H23.3333V25H50ZM35 33.3333V36.6667H23.3333V33.3333H35ZM30 41.6667V45H23.3333V41.6667H30Z" fill="#94A3B8"/>
<path id="Vector_3" d="M21.6667 63.3332C20.3913 63.3332 19.1642 62.846 18.2363 61.971C17.3083 61.0961 16.7498 59.8997 16.675 58.6265L16.6667 58.3332V21.6665C16.6666 20.3912 17.1539 19.164 18.0288 18.2361C18.9038 17.3082 20.1002 16.7497 21.3734 16.6748L21.6667 16.6665H53.3334C54.6087 16.6664 55.8359 17.1537 56.7638 18.0286C57.6917 18.9036 58.2502 20.1 58.325 21.3732L58.3334 21.6665V31.8648H55V21.6665C55 21.2583 54.8501 20.8643 54.5788 20.5592C54.3076 20.2542 53.9338 20.0593 53.5284 20.0115L53.3334 19.9998H21.6667C21.2585 19.9999 20.8645 20.1498 20.5594 20.421C20.2543 20.6923 20.0594 21.0661 20.0117 21.4715L20 21.6665V58.3332C20.0001 58.7414 20.1499 59.1354 20.4212 59.4405C20.6925 59.7455 21.0663 59.9404 21.4717 59.9882L21.6667 59.9998H35V63.3332H21.6667Z" fill="#94A3B8"/>
<path id="Vector_4" d="M40.3207 51.3816L52.1058 39.5965C53.6772 38.0251 55.2485 38.0251 56.8199 39.5965L59.1769 41.9535C60.7483 43.5249 60.7483 45.0962 59.1769 46.6675L47.3918 58.4527C45.8204 60.024 44.2491 60.024 42.6777 58.4527L40.3207 56.0956C38.7494 54.5243 38.7494 52.9529 40.3207 51.3816Z" fill="#9B9B9B" fill-opacity="0.2"/>
<path id="Vector_5" d="M50.9267 38.4169L39.1434 50.2019C38.679 50.6662 38.3106 51.2175 38.0593 51.8241C37.8079 52.4308 37.6786 53.0811 37.6786 53.7377C37.6786 54.3944 37.8079 55.0447 38.0593 55.6514C38.3106 56.258 38.679 56.8093 39.1434 57.2736L41.4984 59.6302C41.9627 60.0946 42.5139 60.463 43.1206 60.7143C43.7273 60.9657 44.3775 61.095 45.0342 61.095C45.6909 61.095 46.3411 60.9657 46.9478 60.7143C47.5545 60.463 48.1057 60.0946 48.57 59.6302L60.355 47.8469C60.8197 47.3826 61.1882 46.8312 61.4397 46.2244C61.6912 45.6176 61.8206 44.9671 61.8206 44.3102C61.8206 43.6534 61.6912 43.0029 61.4397 42.3961C61.1882 41.7893 60.8197 41.2379 60.355 40.7736L58 38.4169C57.5357 37.9525 56.9845 37.5842 56.3778 37.3328C55.7711 37.0815 55.1209 36.9521 54.4642 36.9521C53.8075 36.9521 53.1573 37.0815 52.5506 37.3328C51.9439 37.5842 51.3927 37.9525 50.9284 38.4169H50.9267ZM41.5 52.5602L53.2867 40.7736C53.5992 40.4611 54.0231 40.2856 54.465 40.2856C54.907 40.2856 55.3308 40.4611 55.6434 40.7736L58 43.1319C58.3125 43.4445 58.488 43.8683 58.488 44.3102C58.488 44.7522 58.3125 45.176 58 45.4886L46.215 57.2736C45.9025 57.586 45.4786 57.7616 45.0367 57.7616C44.5947 57.7616 44.1709 57.586 43.8584 57.2736L41.5 54.9169C41.1876 54.6044 41.012 54.1805 41.012 53.7386C41.012 53.2966 41.1876 52.8728 41.5 52.5602Z" fill="#94A3B8"/>
<path id="Vector_6" d="M65.07 61.9869C65.3714 62.2874 65.5463 62.6918 65.5591 63.1172C65.5718 63.5426 65.4214 63.9567 65.1385 64.2747C64.8557 64.5927 64.4619 64.7905 64.038 64.8274C63.614 64.8644 63.192 64.7378 62.8583 64.4736L62.7117 64.3452L52.695 54.3286C52.39 54.0289 52.2119 53.6234 52.1975 53.1961C52.1831 52.7687 52.3334 52.3522 52.6175 52.0326C52.9015 51.713 53.2976 51.5148 53.7236 51.479C54.1497 51.4432 54.5733 51.5725 54.9067 51.8402L55.0517 51.9702L65.0683 61.9869H65.07Z" fill="#94A3B8"/>
</g>
</svg>
