<svg width="80" height="80" viewBox="0 0 80 80" fill="none" xmlns="http://www.w3.org/2000/svg">
<g id="Icon/Field(7)">
<path id="Vector" d="M23.3333 28.3335V35.0002H20V28.3335H23.3333ZM23.3333 45.0002V51.6668H20V45.0002H23.3333Z" fill="#94A3B8"/>
<path id="Vector_2" d="M16.6667 23.3335C16.6667 24.6596 17.1934 25.9313 18.1311 26.869C19.0688 27.8067 20.3406 28.3335 21.6667 28.3335C22.9927 28.3335 24.2645 27.8067 25.2022 26.869C26.1399 25.9313 26.6667 24.6596 26.6667 23.3335C26.6667 22.0074 26.1399 20.7356 25.2022 19.798C24.2645 18.8603 22.9927 18.3335 21.6667 18.3335C20.3406 18.3335 19.0688 18.8603 18.1311 19.798C17.1934 20.7356 16.6667 22.0074 16.6667 23.3335Z" fill="#9B9B9B" fill-opacity="0.2"/>
<path id="Vector_3" d="M21.6667 16.6665C19.8986 16.6665 18.2029 17.3689 16.9526 18.6191C15.7024 19.8694 15 21.5651 15 23.3332C15 25.1013 15.7024 26.797 16.9526 28.0472C18.2029 29.2975 19.8986 29.9998 21.6667 29.9998C23.4348 29.9998 25.1305 29.2975 26.3807 28.0472C27.631 26.797 28.3333 25.1013 28.3333 23.3332C28.3333 21.5651 27.631 19.8694 26.3807 18.6191C25.1305 17.3689 23.4348 16.6665 21.6667 16.6665ZM21.6667 19.9998C22.1044 19.9998 22.538 20.0859 22.9424 20.2534C23.3469 20.4209 23.7144 20.6664 24.024 20.976C24.3336 21.2855 24.5792 21.653 24.7467 22.0574C24.9143 22.4619 25.0005 22.8954 25.0005 23.3332C25.0005 23.771 24.9143 24.2044 24.7467 24.6089C24.5792 25.0134 24.3336 25.3808 24.024 25.6904C23.7144 25.9999 23.3469 26.2454 22.9424 26.4129C22.538 26.5804 22.1044 26.6666 21.6667 26.6665C20.7827 26.6664 19.935 26.3151 19.31 25.69C18.685 25.0649 18.3338 24.2171 18.3338 23.3332C18.3338 22.4492 18.685 21.6014 19.31 20.9763C19.935 20.3512 20.7827 20 21.6667 19.9998ZM58.3333 16.6665H38.3333C37.0072 16.6665 35.7355 17.1933 34.7978 18.131C33.8601 19.0687 33.3333 20.3404 33.3333 21.6665V24.9998C33.3333 26.3259 33.8601 27.5977 34.7978 28.5354C35.7355 29.4731 37.0072 29.9998 38.3333 29.9998H58.3333C59.6594 29.9998 60.9312 29.4731 61.8689 28.5354C62.8065 27.5977 63.3333 26.3259 63.3333 24.9998V21.6665C63.3333 20.3404 62.8065 19.0687 61.8689 18.131C60.9312 17.1933 59.6594 16.6665 58.3333 16.6665ZM38.3333 19.9998H58.3333C58.7754 19.9998 59.1993 20.1754 59.5118 20.488C59.8244 20.8006 60 21.2245 60 21.6665V24.9998C60 25.4419 59.8244 25.8658 59.5118 26.1783C59.1993 26.4909 58.7754 26.6665 58.3333 26.6665H38.3333C38.1145 26.6665 37.8977 26.6234 37.6955 26.5396C37.4933 26.4559 37.3096 26.3331 37.1548 26.1783C37.0001 26.0236 36.8773 25.8399 36.7935 25.6376C36.7098 25.4354 36.6667 25.2187 36.6667 24.9998V21.6665C36.6667 21.4476 36.7098 21.2309 36.7935 21.0287C36.8773 20.8265 37.0001 20.6428 37.1548 20.488C37.3096 20.3332 37.4933 20.2105 37.6955 20.1267C37.8977 20.0429 38.1145 19.9998 38.3333 19.9998ZM58.3333 33.3332H38.3333C37.0072 33.3332 35.7355 33.86 34.7978 34.7976C33.8601 35.7353 33.3333 37.0071 33.3333 38.3332V41.6665C33.3333 42.9926 33.8601 44.2644 34.7978 45.202C35.7355 46.1397 37.0072 46.6665 38.3333 46.6665H58.3333C59.6594 46.6665 60.9312 46.1397 61.8689 45.202C62.8065 44.2644 63.3333 42.9926 63.3333 41.6665V38.3332C63.3333 37.0071 62.8065 35.7353 61.8689 34.7976C60.9312 33.86 59.6594 33.3332 58.3333 33.3332ZM38.3333 36.6665H58.3333C58.5522 36.6665 58.7689 36.7096 58.9711 36.7934C59.1733 36.8771 59.3571 36.9999 59.5118 37.1547C59.6666 37.3094 59.7894 37.4932 59.8731 37.6954C59.9569 37.8976 60 38.1143 60 38.3332V41.6665C60 41.8854 59.9569 42.1021 59.8731 42.3043C59.7894 42.5065 59.6666 42.6903 59.5118 42.845C59.3571 42.9998 59.1733 43.1225 58.9711 43.2063C58.7689 43.2901 58.5522 43.3332 58.3333 43.3332H38.3333C38.1145 43.3332 37.8977 43.2901 37.6955 43.2063C37.4933 43.1225 37.3096 42.9998 37.1548 42.845C37.0001 42.6903 36.8773 42.5065 36.7935 42.3043C36.7098 42.1021 36.6667 41.8854 36.6667 41.6665V38.3332C36.6667 38.1143 36.7098 37.8976 36.7935 37.6954C36.8773 37.4932 37.0001 37.3094 37.1548 37.1547C37.3096 36.9999 37.4933 36.8771 37.6955 36.7934C37.8977 36.7096 38.1145 36.6665 38.3333 36.6665ZM58.3333 49.9998H38.3333C37.0072 49.9998 35.7355 50.5266 34.7978 51.4643C33.8601 52.402 33.3333 53.6738 33.3333 54.9998V58.3332C33.3333 59.6593 33.8601 60.931 34.7978 61.8687C35.7355 62.8064 37.0072 63.3332 38.3333 63.3332H58.3333C59.6594 63.3332 60.9312 62.8064 61.8689 61.8687C62.8065 60.931 63.3333 59.6593 63.3333 58.3332V54.9998C63.3333 53.6738 62.8065 52.402 61.8689 51.4643C60.9312 50.5266 59.6594 49.9998 58.3333 49.9998ZM38.3333 53.3332H58.3333C58.5522 53.3332 58.7689 53.3763 58.9711 53.46C59.1733 53.5438 59.3571 53.6666 59.5118 53.8213C59.6666 53.9761 59.7894 54.1598 59.8731 54.362C59.9569 54.5642 60 54.781 60 54.9998V58.3332C60 58.7752 59.8244 59.1991 59.5118 59.5117C59.1993 59.8242 58.7754 59.9998 58.3333 59.9998H38.3333C38.1145 59.9998 37.8977 59.9567 37.6955 59.873C37.4933 59.7892 37.3096 59.6664 37.1548 59.5117C37.0001 59.3569 36.8773 59.1732 36.7935 58.971C36.7098 58.7688 36.6667 58.552 36.6667 58.3332V54.9998C36.6667 54.781 36.7098 54.5642 36.7935 54.362C36.8773 54.1598 37.0001 53.9761 37.1548 53.8213C37.3096 53.6666 37.4933 53.5438 37.6955 53.46C37.8977 53.3763 38.1145 53.3332 38.3333 53.3332ZM21.6667 33.3332C19.8986 33.3332 18.2029 34.0355 16.9526 35.2858C15.7024 36.536 15 38.2317 15 39.9998C15 41.7679 15.7024 43.4636 16.9526 44.7139C18.2029 45.9641 19.8986 46.6665 21.6667 46.6665C23.4348 46.6665 25.1305 45.9641 26.3807 44.7139C27.631 43.4636 28.3333 41.7679 28.3333 39.9998C28.3333 38.2317 27.631 36.536 26.3807 35.2858C25.1305 34.0355 23.4348 33.3332 21.6667 33.3332ZM21.6667 36.6665C22.5507 36.6665 23.3986 37.0177 24.0237 37.6428C24.6488 38.2679 25 39.1158 25 39.9998C25 40.8839 24.6488 41.7317 24.0237 42.3569C23.3986 42.982 22.5507 43.3332 21.6667 43.3332C20.7826 43.3332 19.9348 42.982 19.3096 42.3569C18.6845 41.7317 18.3333 40.8839 18.3333 39.9998C18.3333 39.1158 18.6845 38.2679 19.3096 37.6428C19.9348 37.0177 20.7826 36.6665 21.6667 36.6665Z" fill="#94A3B8"/>
<path id="Vector_4" d="M16.6667 56.6665C16.6667 57.9926 17.1934 59.2644 18.1311 60.202C19.0688 61.1397 20.3406 61.6665 21.6667 61.6665C22.9927 61.6665 24.2645 61.1397 25.2022 60.202C26.1399 59.2644 26.6667 57.9926 26.6667 56.6665C26.6667 55.3404 26.1399 54.0687 25.2022 53.131C24.2645 52.1933 22.9927 51.6665 21.6667 51.6665C20.3406 51.6665 19.0688 52.1933 18.1311 53.131C17.1934 54.0687 16.6667 55.3404 16.6667 56.6665Z" fill="#9B9B9B" fill-opacity="0.2"/>
<path id="Vector_5" d="M21.6667 50C19.8986 50 18.2029 50.7024 16.9526 51.9526C15.7024 53.2029 15 54.8986 15 56.6667C15 58.4348 15.7024 60.1305 16.9526 61.3807C18.2029 62.631 19.8986 63.3333 21.6667 63.3333C23.4348 63.3333 25.1305 62.631 26.3807 61.3807C27.631 60.1305 28.3333 58.4348 28.3333 56.6667C28.3333 54.8986 27.631 53.2029 26.3807 51.9526C25.1305 50.7024 23.4348 50 21.6667 50ZM21.6667 53.3333C22.1044 53.3333 22.538 53.4194 22.9424 53.5869C23.3469 53.7544 23.7144 53.9999 24.024 54.3095C24.3336 54.619 24.5792 54.9865 24.7467 55.3909C24.9143 55.7954 25.0005 56.2289 25.0005 56.6667C25.0005 57.1044 24.9143 57.5379 24.7467 57.9424C24.5792 58.3468 24.3336 58.7143 24.024 59.0239C23.7144 59.3334 23.3469 59.5789 22.9424 59.7464C22.538 59.9139 22.1044 60.0001 21.6667 60C20.7827 59.9999 19.935 59.6486 19.31 59.0235C18.685 58.3984 18.3338 57.5506 18.3338 56.6667C18.3338 55.7827 18.685 54.9349 19.31 54.3098C19.935 53.6847 20.7827 53.3335 21.6667 53.3333Z" fill="#94A3B8"/>
</g>
</svg>
