<svg width="60" height="60" viewBox="0 0 60 60" fill="none" xmlns="http://www.w3.org/2000/svg">
<g id="Layer_1">
<g id="Group">
<g id="Group_2">
<path id="Vector" d="M51.4008 17.1787C50.7973 16.6874 49.9137 16.78 49.4224 17.3813C47.0474 20.2972 45.8557 19.573 43.2415 17.9847C41.5519 16.9567 39.6339 15.793 37.1404 15.793C34.4789 15.793 32.5608 16.4287 31.2246 17.1766V13.3426C31.2246 12.5668 30.5954 11.9375 29.8195 11.9375C29.0437 11.9375 28.4144 12.5668 28.4144 13.3426V17.1766C27.0782 16.4287 25.1602 15.793 22.4986 15.793C20.0052 15.793 18.0893 16.9567 16.3975 17.9847C13.7834 19.573 12.5916 20.2972 10.2167 17.3813C9.72747 16.78 8.84172 16.6874 8.23829 17.1787C7.63701 17.6679 7.5465 18.5537 8.03571 19.1571C9.83091 21.3618 11.4882 22.1376 13.0118 22.1807L9.91496 28.2236C9.56152 28.9154 9.83307 29.7624 10.5249 30.1158C10.7296 30.2214 10.9494 30.271 11.1649 30.271C11.6757 30.271 12.167 29.9908 12.417 29.5059L15.2639 23.9501L18.2444 29.5253C18.6108 30.2106 19.4621 30.4693 20.1474 30.1029C20.8327 29.7365 21.0913 28.8853 20.725 28.1999L16.863 20.976C17.2035 20.7821 17.5354 20.5816 17.8587 20.3855C19.3673 19.4696 20.7918 18.6032 22.4986 18.6032C26.2162 18.6032 27.8821 20.0752 28.4144 20.6872V44.0723C28.4144 44.8481 29.0437 45.4774 29.8195 45.4774C30.5954 45.4774 31.2246 44.8481 31.2246 44.0723V20.6894C31.757 20.0752 33.425 18.6054 37.1404 18.6054C38.8473 18.6054 40.2718 19.4718 41.7804 20.3877C42.151 20.614 42.5368 20.8467 42.9333 21.0665L39.2654 28.2236C38.9119 28.9154 39.1835 29.7624 39.8752 30.1158C40.08 30.2214 40.2998 30.271 40.5153 30.271C41.0261 30.271 41.5174 29.9908 41.7674 29.5059L44.6143 23.9501L47.5948 29.5253C47.9612 30.2106 48.8125 30.4693 49.4978 30.1029C50.1831 29.7365 50.4417 28.8853 50.0754 28.1999L46.8513 22.1678C48.3125 22.0557 49.8965 21.2519 51.6033 19.155C52.0925 18.5537 52.002 17.6679 51.4008 17.1787Z" fill="#B06328"/>
<path id="Vector_2" d="M33.5367 9.62458C33.5367 11.6784 31.8729 13.3421 29.8191 13.3421C27.7653 13.3421 26.1016 11.6784 26.1016 9.62458C26.1016 7.57077 29.8191 2.56445 29.8191 2.56445C29.8191 2.56445 33.5367 7.57077 33.5367 9.62458Z" fill="#F6B545"/>
<path id="Vector_3" d="M34.2674 43.7852H25.3754C24.5328 43.7852 23.8496 44.4683 23.8496 45.311V47.9143H35.7954V45.311C35.7932 44.4705 35.11 43.7852 34.2674 43.7852Z" fill="#E59C33"/>
<path id="Vector_4" d="M40.9745 55.0909H18.667V50.5328C18.667 48.9596 19.9428 47.6816 21.5182 47.6816H38.1254C39.6987 47.6816 40.9766 48.9575 40.9766 50.5328V55.0909H40.9745Z" fill="#F6B545"/>
<g id="Group_3">
<path id="Vector_5" d="M20.2476 35.6757H10.2931L7.08203 28.3828H23.5708L20.2476 35.6757Z" fill="#F6B545"/>
</g>
<g id="Group_4">
<path id="Vector_6" d="M49.6003 35.6757H39.6437L36.4326 28.3828H52.9213L49.6003 35.6757Z" fill="#F6B545"/>
</g>
</g>
</g>
</g>
</svg>
