<svg width="140" height="36" viewBox="0 0 140 36" fill="none" xmlns="http://www.w3.org/2000/svg">
<path d="M119.617 27.0402L113.441 11.6802H117.089L121.249 22.8482L120.161 22.8802L124.225 11.6802H126.273L130.337 22.8802L129.249 22.8482L133.409 11.6802H137.057L130.881 27.0402H128.833L124.673 16.4162H125.825L121.665 27.0402H119.617Z" fill="#2E7FF8"/>
<path d="M104.286 27.3599C102.899 27.3599 101.641 27.0079 100.51 26.3039C99.4007 25.5999 98.5154 24.6505 97.854 23.4559C97.214 22.2399 96.894 20.8852 96.894 19.3919C96.894 17.8772 97.214 16.5225 97.854 15.3279C98.5154 14.1119 99.4007 13.1519 100.51 12.4479C101.641 11.7225 102.899 11.3599 104.286 11.3599C105.459 11.3599 106.494 11.6159 107.39 12.1279C108.307 12.6185 109.033 13.3012 109.566 14.1759C110.099 15.0505 110.366 16.0425 110.366 17.1519V21.5679C110.366 22.6772 110.099 23.6692 109.566 24.5439C109.054 25.4185 108.339 26.1119 107.422 26.6239C106.505 27.1145 105.459 27.3599 104.286 27.3599ZM104.862 24.0319C106.163 24.0319 107.209 23.5945 107.998 22.7199C108.809 21.8452 109.214 20.7252 109.214 19.3599C109.214 18.4425 109.033 17.6319 108.67 16.9279C108.307 16.2239 107.795 15.6799 107.134 15.2959C106.494 14.8905 105.737 14.6879 104.862 14.6879C104.009 14.6879 103.251 14.8905 102.59 15.2959C101.95 15.6799 101.438 16.2239 101.054 16.9279C100.691 17.6319 100.51 18.4425 100.51 19.3599C100.51 20.2772 100.691 21.0879 101.054 21.7919C101.438 22.4959 101.95 23.0505 102.59 23.4559C103.251 23.8399 104.009 24.0319 104.862 24.0319ZM108.99 27.0399V22.9119L109.598 19.1679L108.99 15.4559V11.6799H112.51V27.0399H108.99Z" fill="#2E7FF8"/>
<path d="M91.6965 27.04V4H95.2165V27.04H91.6965Z" fill="#2E7FF8"/>
<path d="M77.8926 27.3599C76.3566 27.3599 74.97 27.0185 73.7327 26.3359C72.5167 25.6319 71.546 24.6719 70.8206 23.4559C70.1166 22.2399 69.7646 20.8745 69.7646 19.3599C69.7646 17.8452 70.1166 16.4905 70.8206 15.2959C71.5246 14.0799 72.474 13.1199 73.6686 12.4159C74.8846 11.7119 76.2287 11.3599 77.7007 11.3599C79.13 11.3599 80.3887 11.6905 81.4767 12.3519C82.586 13.0132 83.45 13.9199 84.0686 15.0719C84.7086 16.2239 85.0286 17.5359 85.0286 19.0079C85.0286 19.2639 85.0073 19.5305 84.9646 19.8079C84.9433 20.0639 84.9007 20.3519 84.8367 20.6719H72.2287V17.7919H83.0126L81.7007 18.9439C81.658 18.0052 81.4766 17.2159 81.1566 16.5759C80.8366 15.9359 80.378 15.4452 79.7806 15.1039C79.2046 14.7625 78.49 14.5919 77.6367 14.5919C76.7406 14.5919 75.962 14.7839 75.3007 15.1679C74.6393 15.5519 74.1273 16.0959 73.7646 16.7999C73.402 17.4825 73.2206 18.3039 73.2206 19.2639C73.2206 20.2239 73.4126 21.0665 73.7966 21.7919C74.1806 22.5172 74.7246 23.0825 75.4286 23.4879C76.1326 23.8719 76.9433 24.0639 77.8606 24.0639C78.65 24.0639 79.3753 23.9252 80.0367 23.6479C80.7193 23.3705 81.2953 22.9652 81.7646 22.4319L84.0047 24.7039C83.258 25.5785 82.3513 26.2399 81.2847 26.6879C80.218 27.1359 79.0873 27.3599 77.8926 27.3599Z" fill="#2E7FF8"/>
<path d="M64.5991 27.04V4H68.1191V27.04H64.5991Z" fill="#2E7FF8"/>
<path d="M55.5406 27.3599C54.3673 27.3599 53.322 27.1145 52.4047 26.6239C51.4873 26.1119 50.762 25.4185 50.2287 24.5439C49.7167 23.6692 49.4607 22.6772 49.4607 21.5679V17.1519C49.4607 16.0425 49.7273 15.0505 50.2607 14.1759C50.794 13.3012 51.5193 12.6185 52.4367 12.1279C53.354 11.6159 54.3886 11.3599 55.5406 11.3599C56.9273 11.3599 58.1753 11.7225 59.2847 12.4479C60.4153 13.1519 61.3007 14.1119 61.9407 15.3279C62.602 16.5225 62.9327 17.8772 62.9327 19.3919C62.9327 20.8852 62.602 22.2399 61.9407 23.4559C61.3007 24.6505 60.4153 25.5999 59.2847 26.3039C58.1753 27.0079 56.9273 27.3599 55.5406 27.3599ZM47.3167 33.4399V11.6799H50.8367V15.8079L50.2287 19.5519L50.8367 23.2639V33.4399H47.3167ZM54.9647 24.0319C55.818 24.0319 56.5647 23.8399 57.2047 23.4559C57.866 23.0505 58.378 22.4959 58.7407 21.7919C59.1247 21.0879 59.3167 20.2772 59.3167 19.3599C59.3167 18.4425 59.1247 17.6319 58.7407 16.9279C58.378 16.2239 57.866 15.6799 57.2047 15.2959C56.5647 14.8905 55.818 14.6879 54.9647 14.6879C54.1113 14.6879 53.354 14.8905 52.6926 15.2959C52.0313 15.6799 51.5193 16.2239 51.1567 16.9279C50.794 17.6319 50.6127 18.4425 50.6127 19.3599C50.6127 20.2772 50.794 21.0879 51.1567 21.7919C51.5193 22.4959 52.0313 23.0505 52.6926 23.4559C53.354 23.8399 54.1113 24.0319 54.9647 24.0319Z" fill="#2E7FF8"/>
<path d="M21.0342 27.0399V11.6799H24.5542V27.0399H21.0342ZM31.2422 27.0399V17.8879C31.2422 16.8639 30.9222 16.0745 30.2822 15.5199C29.6422 14.9439 28.8528 14.6559 27.9142 14.6559C27.2742 14.6559 26.6982 14.7839 26.1862 15.0399C25.6955 15.2959 25.3008 15.6692 25.0022 16.1599C24.7035 16.6292 24.5542 17.2052 24.5542 17.8879L23.1782 17.1199C23.1782 15.9465 23.4342 14.9332 23.9462 14.0799C24.4582 13.2265 25.1515 12.5652 26.0262 12.0959C26.9008 11.6052 27.8822 11.3599 28.9702 11.3599C30.0582 11.3599 31.0395 11.5945 31.9142 12.0639C32.7888 12.5332 33.4822 13.1945 33.9942 14.0479C34.5062 14.9012 34.7622 15.9252 34.7622 17.1199V27.0399H31.2422ZM41.4502 27.0399V17.8879C41.4502 16.8639 41.1302 16.0745 40.4902 15.5199C39.8502 14.9439 39.0609 14.6559 38.1222 14.6559C37.5035 14.6559 36.9382 14.7839 36.4262 15.0399C35.9142 15.2959 35.5088 15.6692 35.2102 16.1599C34.9115 16.6292 34.7622 17.2052 34.7622 17.8879L32.7782 17.1199C32.8848 15.9465 33.2262 14.9332 33.8022 14.0799C34.3782 13.2265 35.1142 12.5652 36.0102 12.0959C36.9275 11.6052 37.9302 11.3599 39.0182 11.3599C40.1275 11.3599 41.1302 11.5945 42.0262 12.0639C42.9222 12.5332 43.6368 13.1945 44.1702 14.0479C44.7035 14.9012 44.9702 15.9252 44.9702 17.1199V27.0399H41.4502Z" fill="#2E7FF8"/>
<path d="M14.8461 27.0401V11.6801H18.3661V27.0401H14.8461ZM16.6061 8.86414C16.0088 8.86414 15.5075 8.66147 15.1021 8.25614C14.7181 7.8508 14.5261 7.34947 14.5261 6.75214C14.5261 6.1548 14.7181 5.65347 15.1021 5.24814C15.5075 4.8428 16.0088 4.64014 16.6061 4.64014C17.2248 4.64014 17.7261 4.8428 18.1101 5.24814C18.4941 5.65347 18.6861 6.1548 18.6861 6.75214C18.6861 7.34947 18.4941 7.8508 18.1101 8.25614C17.7261 8.66147 17.2248 8.86414 16.6061 8.86414Z" fill="#2E7FF8"/>
<path d="M7.368 27.3599C6.51467 27.3599 5.69333 27.2532 4.904 27.0399C4.11467 26.8052 3.38933 26.4852 2.728 26.0799C2.06667 25.6532 1.49067 25.1412 1 24.5439L3.24 22.3039C3.77333 22.9225 4.38133 23.3919 5.064 23.7119C5.768 24.0105 6.55733 24.1599 7.432 24.1599C8.22133 24.1599 8.81867 24.0425 9.224 23.8079C9.62933 23.5732 9.832 23.2319 9.832 22.7839C9.832 22.3145 9.64 21.9519 9.256 21.6959C8.872 21.4399 8.37067 21.2265 7.752 21.0559C7.15467 20.8639 6.51467 20.6719 5.832 20.4799C5.17067 20.2879 4.53067 20.0319 3.912 19.7119C3.31467 19.3705 2.824 18.9119 2.44 18.3359C2.056 17.7599 1.864 17.0132 1.864 16.0959C1.864 15.1145 2.088 14.2719 2.536 13.5679C3.00533 12.8639 3.656 12.3199 4.488 11.9359C5.34133 11.5519 6.35467 11.3599 7.528 11.3599C8.76533 11.3599 9.85333 11.5839 10.792 12.0319C11.752 12.4585 12.552 13.1092 13.192 13.9839L10.952 16.2239C10.504 15.6692 9.992 15.2532 9.416 14.9759C8.84 14.6985 8.17867 14.5599 7.432 14.5599C6.728 14.5599 6.184 14.6665 5.8 14.8799C5.416 15.0932 5.224 15.4025 5.224 15.8079C5.224 16.2345 5.416 16.5652 5.8 16.7999C6.184 17.0345 6.67467 17.2372 7.272 17.4079C7.89067 17.5785 8.53067 17.7705 9.192 17.9839C9.87467 18.1759 10.5147 18.4532 11.112 18.8159C11.7307 19.1572 12.232 19.6265 12.616 20.2239C13 20.7999 13.192 21.5572 13.192 22.4959C13.192 23.9892 12.6693 25.1732 11.624 26.0479C10.5787 26.9225 9.16 27.3599 7.368 27.3599Z" fill="#2E7FF8"/>
</svg>
