<svg xmlns="http://www.w3.org/2000/svg" width="24" height="24" viewBox="0 0 24 24" fill="none">
  <path d="M4.82143 4.69606C4.91294 4.28936 5.27817 4 5.7 4H18.3C18.7218 4 19.087 4.28936 19.1786 4.69606L20.9786 12.6961C20.9928 12.7594 21 12.824 21 12.8889V19.1111C21 19.602 20.5971 20 20.1 20H3.9C3.40295 20 3 19.602 3 19.1111V12.8889C3 12.824 3.00719 12.7594 3.02143 12.6961L4.82143 4.69606ZM6.42195 5.77778L5.02196 12H9.3C9.3 13.4728 10.5088 14.6667 12 14.6667C13.4912 14.6667 14.7 13.4728 14.7 12H18.9781L17.578 5.77778H6.42195ZM16.1256 13.7778C15.4312 15.3475 13.8453 16.4444 12 16.4444C10.1547 16.4444 8.56884 15.3475 7.87444 13.7778H4.8V18.2222H19.2V13.7778H16.1256Z" fill="#171717"/>
</svg>