<svg xmlns="http://www.w3.org/2000/svg" width="24" height="24" viewBox="0 0 24 24" fill="none">
<path fill-rule="evenodd" clip-rule="evenodd" d="M20.1 4H3.9C3.40295 4 3 4.39797 3 4.88889V19.1111C3 19.602 3.40295 20 3.9 20H13V18.2222H4.8V7.7475L12.0646 14.0782L19.2 7.76704V12H21V4.88889C21 4.39797 20.5971 4 20.1 4ZM12.0557 11.6996L5.26031 5.77778H18.7509L12.0557 11.6996Z" fill="#171717"/>
<path d="M16.2769 21.0001L18.4628 19.8264L20.6488 21.0001L20.2314 18.5141L21.9999 16.7534L19.5558 16.3908L18.4628 14.1289L17.3699 16.3908L14.9258 16.7534L16.6943 18.5141L16.2769 21.0001Z" fill="#171717"/>
</svg>