<svg width="24" height="24" viewBox="0 0 24 24" fill="none" xmlns="http://www.w3.org/2000/svg">
<g id="Icon">
<path id="Vector" d="M11.0879 13.6744V15.1628C8.5662 15.1628 6.52197 17.1619 6.52197 19.6279H5C5 16.3399 7.72564 13.6744 11.0879 13.6744ZM11.0879 12.9302C8.56522 12.9302 6.52197 10.9321 6.52197 8.46512C6.52197 5.99814 8.56522 4 11.0879 4C13.6105 4 15.6538 5.99814 15.6538 8.46512C15.6538 10.9321 13.6105 12.9302 11.0879 12.9302ZM11.0879 11.4419C12.7697 11.4419 14.1318 10.1098 14.1318 8.46512C14.1318 6.82047 12.7697 5.48837 11.0879 5.48837C9.40611 5.48837 8.04394 6.82047 8.04394 8.46512C8.04394 10.1098 9.40611 11.4419 11.0879 11.4419ZM13.0623 17.2551C13.0152 17.0613 12.9903 16.8591 12.9903 16.6512C12.9903 16.4433 13.0152 16.2411 13.0623 16.0473L12.3077 15.6213L13.0687 14.3323L13.8238 14.7586C14.1229 14.4819 14.4877 14.2723 14.8928 14.1543V13.3023H16.4148V14.1543C16.8199 14.2723 17.1846 14.4819 17.4837 14.7586L18.2389 14.3322L19 15.6212L18.2453 16.0473C18.2924 16.2411 18.3172 16.4433 18.3172 16.6512C18.3172 16.859 18.2924 17.0612 18.2453 17.255L19 17.681L18.239 18.97L17.4838 18.5436C17.1847 18.8204 16.82 19.03 16.4149 19.1479V20H14.8929V19.148C14.4877 19.0301 14.123 18.8205 13.8239 18.5437L13.0687 18.9701L12.3077 17.6811L13.0623 17.2551ZM15.6538 17.7674C16.2842 17.7674 16.7953 17.2676 16.7953 16.6512C16.7953 16.0347 16.2842 15.5349 15.6538 15.5349C15.0234 15.5349 14.5123 16.0347 14.5123 16.6512C14.5123 17.2676 15.0234 17.7674 15.6538 17.7674Z" fill="#171717"/>
</g>
</svg>
