<svg width="24" height="24" viewBox="0 0 24 24" fill="none" xmlns="http://www.w3.org/2000/svg">
<g id="Icon">
<path id="Vector" d="M4.81186 15.9993C4.45309 15.4005 4.1838 14.7755 4 14.1388C4.80716 13.7419 5.35989 12.9331 5.35989 12C5.35989 11.0676 4.80799 10.2593 4.00183 9.86212C4.37261 8.57361 5.07673 7.37362 6.07787 6.39278C6.83813 6.86802 7.84132 6.92495 8.67995 6.45836C9.51857 5.99177 9.969 5.12606 9.92205 4.25396C11.3041 3.90887 12.7346 3.92122 14.0778 4.25602C14.0317 5.12743 14.4821 5.99213 15.32 6.45836C16.1587 6.92494 17.1618 6.86802 17.9221 6.39283C18.4024 6.86458 18.8293 7.40181 19.1882 8.00067C19.5469 8.59952 19.8162 9.2245 20 9.86121C19.1928 10.2581 18.6401 11.0669 18.6401 12C18.6401 12.9325 19.192 13.7407 19.9982 14.1379C19.6274 15.4264 18.9233 16.6263 17.9221 17.6072C17.1618 17.132 16.1587 17.0751 15.32 17.5416C14.4814 18.0082 14.031 18.874 14.0779 19.7461C12.696 20.0911 11.2655 20.0788 9.92215 19.744C9.96829 18.8725 9.5179 18.0079 8.67995 17.5416C7.84135 17.0751 6.8382 17.1319 6.07795 17.6071C5.59765 17.1354 5.17064 16.5982 4.81186 15.9993ZM9.50996 16.1563C10.4158 16.6602 11.0664 17.4571 11.378 18.3715C11.7916 18.4094 12.2079 18.41 12.6216 18.3728C12.933 17.4579 13.5837 16.6605 14.49 16.1563C15.3963 15.6519 16.4383 15.5076 17.4162 15.7051C17.6565 15.3785 17.8641 15.0307 18.0368 14.6666C17.3709 13.9493 16.9801 13.008 16.9801 12C16.9801 10.992 17.3709 10.0507 18.0368 9.33348C17.9504 9.15271 17.855 8.97491 17.7505 8.80053C17.646 8.62615 17.5339 8.45761 17.4147 8.29519C16.4372 8.49223 15.3959 8.34775 14.49 7.84377C13.5842 7.33977 12.9337 6.54289 12.622 5.62854C12.2085 5.59062 11.7921 5.59007 11.3785 5.62723C11.067 6.54211 10.4162 7.33952 9.50996 7.84377C8.60365 8.34802 7.56169 8.49237 6.58379 8.29488C6.34356 8.62152 6.13588 8.96927 5.96318 9.33337C6.62905 10.0506 7.01992 10.992 7.01992 12C7.01992 13.008 6.62907 13.9493 5.96318 14.6665C6.04959 14.8473 6.14501 15.0251 6.2495 15.1995C6.35397 15.3738 6.46603 15.5424 6.58532 15.7048C7.56279 15.5078 8.60413 15.6523 9.50996 16.1563ZM12 14.3996C10.6248 14.3996 9.50996 13.3253 9.50996 12C9.50996 10.6748 10.6248 9.6004 12 9.6004C13.3752 9.6004 14.49 10.6748 14.49 12C14.49 13.3253 13.3752 14.3996 12 14.3996ZM12 12.7999C12.4584 12.7999 12.83 12.4418 12.83 12C12.83 11.5582 12.4584 11.2001 12 11.2001C11.5416 11.2001 11.17 11.5582 11.17 12C11.17 12.4418 11.5416 12.7999 12 12.7999Z" fill="#171717"/>
</g>
</svg>
