<svg width="24" height="24" viewBox="0 0 24 24" fill="none" xmlns="http://www.w3.org/2000/svg">
<path fill-rule="evenodd" clip-rule="evenodd" d="M3 7.88244C2.99996 6.29052 4.22633 5 5.73915 5H18.2606C19.7731 5 20.9997 6.2894 20.9998 7.88154L21 16.1186C21 17.7109 19.7733 19 18.2609 19L5.73934 18.9999C4.2266 18.9999 3.00027 17.7094 3.00022 16.1176L3 7.88244ZM5.73915 6.37255C4.94672 6.37255 4.30433 7.04854 4.30436 7.8824L4.30438 8.84301H19.6954L19.6954 7.88158C19.6954 7.04805 19.0533 6.37255 18.2606 6.37255H5.73915ZM19.6955 10.2156H4.30442L4.30458 16.1176C4.3046 16.9514 4.94696 17.6273 5.73936 17.6273L18.2609 17.6274C19.0537 17.6275 19.6957 16.9521 19.6956 16.1186L19.6955 10.2156ZM6.65179 13.3724C6.65179 12.9934 6.94378 12.6862 7.30397 12.6862H9.91268C10.2729 12.6862 10.5649 12.9934 10.5649 13.3724C10.5649 13.7514 10.2729 14.0587 9.91268 14.0587H7.30397C6.94378 14.0587 6.65179 13.7514 6.65179 13.3724Z" fill="#4A5055"/>
</svg>
