<svg width="24" height="24" viewBox="0 0 24 24" fill="none" xmlns="http://www.w3.org/2000/svg">
<g id="Icon">
<g id="Group">
<path id="Vector" d="M14.4688 18.2192H7.25195V19.1413C7.25195 19.4851 7.38849 19.8147 7.63153 20.0578C7.87457 20.3009 8.20422 20.4375 8.54795 20.4375H18.331C18.6747 20.4375 19.0043 20.3009 19.2473 20.0579C19.4903 19.8148 19.6269 19.4852 19.627 19.1415V8.10919L15.0801 3.5625H8.54795C8.20423 3.5625 7.87459 3.69904 7.63154 3.94209C7.3885 4.18514 7.25195 4.51478 7.25195 4.8585V11.4992H14.4688C14.6309 11.4992 14.7864 11.5636 14.901 11.6782C15.0157 11.7929 15.0801 11.9483 15.0801 12.1104V17.6079C15.08 17.77 15.0156 17.9255 14.901 18.0401C14.7864 18.1547 14.6309 18.2191 14.4688 18.2192Z" fill="#EAEAE4"/>
<path id="Vector_2" d="M19.627 8.10919L15.0801 3.5625V6.81319C15.0801 7.15689 15.2167 7.48651 15.4597 7.72954C15.7028 7.97258 16.0324 8.10914 16.3761 8.10919H19.627Z" fill="#BABAB9"/>
<path id="Vector_3" d="M14.4681 11.499H4.98625C4.64867 11.499 4.375 11.7727 4.375 12.1103V17.6078C4.375 17.9454 4.64867 18.219 4.98625 18.219H14.4681C14.8057 18.219 15.0794 17.9454 15.0794 17.6078V12.1103C15.0794 11.7727 14.8057 11.499 14.4681 11.499Z" fill="#F24646"/>
<g id="Group_2">
<path id="Vector_4" d="M6.90791 15.3335C7.49441 15.3335 7.92753 14.9556 7.92753 14.4201C7.92753 13.8846 7.49441 13.5068 6.90791 13.5068H5.69141V16.2115H6.27022V15.3335H6.90791ZM6.27041 14.0384H6.84434C7.13178 14.0384 7.32847 14.1884 7.32847 14.4201C7.32847 14.6519 7.13178 14.8021 6.84434 14.8021H6.27022L6.27041 14.0384Z" fill="#FFFCEE"/>
<path id="Vector_5" d="M11.0331 14.8568C11.0331 14.0656 10.3876 13.5068 9.4782 13.5068H8.50977V16.2111H9.4782C10.3872 16.2111 11.0331 15.6481 11.0331 14.8568ZM9.55302 15.6837H9.08839V14.0337H9.55302C9.66579 14.0265 9.77885 14.0425 9.88521 14.0807C9.99157 14.1189 10.089 14.1785 10.1714 14.2558C10.2538 14.3331 10.3195 14.4265 10.3644 14.5302C10.4093 14.6339 10.4325 14.7457 10.4325 14.8587C10.4325 14.9717 10.4093 15.0835 10.3644 15.1872C10.3195 15.2909 10.2538 15.3843 10.1714 15.4616C10.089 15.539 9.99157 15.5986 9.88521 15.6368C9.77885 15.6749 9.66579 15.6909 9.55302 15.6837Z" fill="#FFFCEE"/>
<path id="Vector_6" d="M13.7623 14.0305V13.5068H11.6797V16.2115H12.2623V15.1407H13.6205V14.617H12.2623V14.0305H13.7623Z" fill="#FFFCEE"/>
</g>
</g>
</g>
</svg>
