<svg width="80" height="80" viewBox="0 0 80 80" fill="none" xmlns="http://www.w3.org/2000/svg">
<g id="Icon/Field(3)">
<path id="Vector" d="M30.205 18.3335C28.122 19.4871 26.386 21.1777 25.1776 23.2294C23.9691 25.2811 23.3323 27.619 23.3333 30.0002V50.0002C23.3326 52.3816 23.97 54.7198 25.179 56.7715C26.3881 58.8233 28.1247 60.5136 30.2083 61.6668H23.3333C22.4493 61.6668 21.6014 61.3156 20.9763 60.6905C20.3512 60.0654 20 59.2176 20 58.3335V21.6668C20 20.7828 20.3512 19.9349 20.9763 19.3098C21.6014 18.6847 22.4493 18.3335 23.3333 18.3335H30.205Z" fill="#9B9B9B" fill-opacity="0.2"/>
<path id="Vector_2" d="M45 25V28.3333H23.3333V25H45ZM35 33.3333V36.6667H23.3333V33.3333H35ZM30 41.6667V45H23.3333V41.6667H30Z" fill="#94A3B8"/>
<path id="Vector_3" d="M53.3333 16.6665C54.6087 16.6664 55.8358 17.1537 56.7638 18.0286C57.6917 18.9036 58.2502 20.1 58.325 21.3732L58.3333 21.6665V28.3615H55V21.6665C54.9999 21.2583 54.8501 20.8643 54.5788 20.5592C54.3075 20.2542 53.9337 20.0593 53.5283 20.0115L53.3333 19.9998H21.6667C21.2584 19.9999 20.8644 20.1498 20.5594 20.421C20.2543 20.6923 20.0594 21.0661 20.0117 21.4715L20 21.6665V58.3332C20 58.7414 20.1499 59.1354 20.4212 59.4405C20.6924 59.7455 21.0662 59.9404 21.4717 59.9882L21.6667 59.9998H53.3333C53.7415 59.9998 54.1356 59.8499 54.4406 59.5786C54.7457 59.3074 54.9406 58.9336 54.9883 58.5282L55 58.3332V56.6765H58.3333V58.3332C58.3334 59.6085 57.8461 60.8357 56.9712 61.7636C56.0963 62.6915 54.8998 63.25 53.6267 63.3248L53.3333 63.3332H21.6667C20.3913 63.3332 19.1641 62.846 18.2362 61.971C17.3083 61.0961 16.7498 59.8997 16.675 58.6265L16.6667 58.3332V21.6665C16.6666 20.3912 17.1539 19.164 18.0288 18.2361C18.9037 17.3082 20.1002 16.7497 21.3733 16.6748L21.6667 16.6665H53.3333Z" fill="#94A3B8"/>
<path id="Vector_4" d="M55.185 30.5169C55.7483 30.8535 56.2183 31.3385 56.5417 31.9235L66.17 49.2319C67.1933 51.0702 66.5867 53.4235 64.8133 54.4852C64.25 54.8219 63.6117 55.0002 62.96 55.0002H43.705C41.6583 55.0002 40 53.2785 40 51.1535C40 50.4785 40.1717 49.8152 40.4967 49.2319L50.1233 31.9235C51.1467 30.0835 53.4133 29.4535 55.185 30.5169ZM53.3333 33.3335L43.3333 51.6669H63.3333L53.3333 33.3335Z" fill="#94A3B8"/>
<path id="Vector_5" d="M55 48.3331C54.9995 48.7579 54.8369 49.1665 54.5452 49.4754C54.2536 49.7843 53.8551 49.9702 53.431 49.9951C53.0069 50.02 52.5894 49.882 52.2636 49.6093C51.9378 49.3367 51.7285 48.9499 51.6783 48.5281L51.6667 48.3331V44.9998C51.6671 44.575 51.8298 44.1664 52.1214 43.8575C52.413 43.5486 52.8116 43.3627 53.2357 43.3378C53.6597 43.3129 54.0773 43.4509 54.403 43.7236C54.7288 43.9962 54.9382 44.383 54.9883 44.8048L55 44.9998V48.3331Z" fill="#94A3B8"/>
<path id="Vector_6" d="M53.3333 38.3335C54.4444 38.3335 55 38.8891 55 40.0002C55 41.1113 54.4444 41.6668 53.3333 41.6668C52.2222 41.6668 51.6667 41.1113 51.6667 40.0002C51.6667 38.8891 52.2222 38.3335 53.3333 38.3335Z" fill="#94A3B8"/>
</g>
</svg>
