<svg width="32" height="32" viewBox="0 0 32 32" fill="none" xmlns="http://www.w3.org/2000/svg">
<g id="profile">
<path id="Rectangle 109" d="M3.25304 3.25304C6.88499 -0.378913 16 0.0122893 16 0.0122893C16 0.0122893 25.115 -0.378913 28.747 3.25304C32.3789 6.88499 31.9877 16 31.9877 16C31.9877 16 32.3789 25.115 28.747 28.747C25.115 32.3789 16 31.9877 16 31.9877C16 31.9877 6.88499 32.3789 3.25304 28.747C-0.378913 25.115 0.0122893 16 0.0122893 16C0.0122893 16 -0.378913 6.88499 3.25304 3.25304Z" fill="#92B9D6"/>
<g id="Mask group">
<mask id="mask0_501_604" style="mask-type:alpha" maskUnits="userSpaceOnUse" x="0" y="0" width="32" height="32">
<path id="Rectangle 108" d="M3.25304 3.25304C6.88499 -0.378913 16 0.0122893 16 0.0122893C16 0.0122893 25.115 -0.378913 28.747 3.25304C32.3789 6.88499 31.9877 16 31.9877 16C31.9877 16 32.3789 25.115 28.747 28.747C25.115 32.3789 16 31.9877 16 31.9877C16 31.9877 6.88499 32.3789 3.25304 28.747C-0.378913 25.115 0.0122893 16 0.0122893 16C0.0122893 16 -0.378913 6.88499 3.25304 3.25304Z" fill="#92B9D6"/>
</mask>
<g mask="url(#mask0_501_604)">
<path id="Vector" d="M21.9146 14.0918C21.9146 17.4562 19.2665 20.1837 15.9998 20.1837C12.7332 20.1837 10.085 17.4562 10.085 14.0918C10.085 10.7274 12.7332 8 15.9998 8C19.2665 8 21.9146 10.7274 21.9146 14.0918ZM26.3789 31.1087C25.5484 26.2626 21.2091 22.5704 15.9921 22.5704C10.775 22.5704 6.44794 26.2629 5.62021 31.1094C5.46877 31.9961 6.1731 32.8 7.04727 32.8H24.9519C25.8263 32.8 26.5309 31.9956 26.3789 31.1087Z" fill="#C9DCEA"/>
</g>
</g>
</g>
</svg>
