<svg width="38" height="50" viewBox="0 0 38 50" fill="none" xmlns="http://www.w3.org/2000/svg">
<g id="Frame 24999">
<path id="Vector" d="M31.7284 8.32289C39.133 4.77451 37.9269 0 37.9269 0C37.9269 0 35.3433 3.52151 28.2102 3.04008C22.6262 2.66289 18.9596 5.17319 16.8014 12.6224C16.8014 12.6224 15.5437 14.5599 15.193 10.543C15.193 10.543 7.85206 13.6014 9.91349 24.8666L9.18457 26.1335C10.7227 24.9278 14.4058 22.9097 19.2235 22.9527C24.5216 23 26.9261 18.1513 26.9261 18.1513C25.3066 19.2807 19.7314 18.1814 25.0515 16.4588C30.3717 14.7351 33.405 10.1884 33.405 10.1884C33.405 10.1884 24.3237 11.8723 31.7284 8.32289Z" fill="#F6B545"/>
<g id="Group">
<path id="Vector_2" d="M8.10127 28.446C7.98693 28.446 7.87149 28.417 7.76595 28.3557C7.45261 28.1741 7.34926 27.7786 7.53397 27.4724C10.1847 23.0955 14.7473 18.0265 21.0921 12.4052C25.8043 8.23033 29.7996 5.29233 29.8392 5.26332C30.1305 5.04947 30.5439 5.1075 30.7627 5.39227C30.9815 5.67705 30.9221 6.0811 30.6308 6.29495C30.4736 6.40993 14.8397 17.9438 8.66858 28.13C8.54654 28.3331 8.32665 28.446 8.10127 28.446Z" fill="#E59B30"/>
</g>
<g id="Group_2">
<path id="Vector_3" d="M20.958 10.0211C20.8777 10.0211 20.7963 10.0071 20.7172 9.97596C20.3797 9.84594 20.2125 9.47627 20.3434 9.14636C20.3862 9.03783 21.4384 6.47595 25.4579 4.97901C25.7987 4.8522 26.1791 5.01877 26.3089 5.3519C26.4386 5.68503 26.2682 6.05685 25.9274 6.18365C22.4939 7.46244 21.6088 9.52785 21.5725 9.61489C21.4692 9.86635 21.2207 10.0211 20.958 10.0211Z" fill="#E59B30"/>
</g>
<g id="Group_3">
<path id="Vector_4" d="M17.9778 21.3331C17.56 21.3331 17.2544 21.3127 17.1587 21.3062C16.7959 21.2794 16.5233 20.9699 16.5507 20.6142C16.5782 20.2595 16.8938 19.993 17.2577 20.0199C18.312 20.0973 20.2184 20.0102 20.8473 19.4482C21.1167 19.2086 21.5333 19.2268 21.7796 19.489C22.0248 19.7523 22.0061 20.1596 21.7378 20.4003C20.8396 21.2031 19.0431 21.3331 17.9778 21.3331Z" fill="#E59B30"/>
</g>
<path id="Vector_5" d="M13.3262 34.9556H5.62138H0V47.3136C0 48.7977 1.23136 50.0002 2.74857 50.0002H16.2001C17.7173 50.0002 18.9487 48.7977 18.9487 47.3136V34.9556H13.3262Z" fill="#B06328"/>
<path id="Vector_6" d="M4.43555 30.918H14.5129V34.9542H4.43555V30.918Z" fill="#8E481A"/>
<path id="Vector_7" d="M16.0916 31.0552H2.85445C1.86496 31.0552 1.06348 30.2718 1.06348 29.3047V29.2896C1.06348 28.3225 1.86496 27.5391 2.85445 27.5391H16.0916C17.0811 27.5391 17.8825 28.3225 17.8825 29.2896V29.3047C17.8825 30.2707 17.0811 31.0552 16.0916 31.0552Z" fill="#B06328"/>
<path id="Vector_8" d="M0 39.3848H18.9487V44.6547H0V39.3848Z" fill="#8E481A"/>
</g>
</svg>
