<svg width="80" height="80" viewBox="0 0 80 80" fill="none" xmlns="http://www.w3.org/2000/svg">
<g id="Icon/Field(5)">
<path id="Vector" d="M30.205 18.3335C28.122 19.4871 26.386 21.1777 25.1776 23.2294C23.9691 25.2811 23.3323 27.619 23.3333 30.0002V50.0002C23.3326 52.3816 23.97 54.7198 25.179 56.7715C26.3881 58.8233 28.1247 60.5136 30.2083 61.6668H23.3333C22.4493 61.6668 21.6014 61.3156 20.9763 60.6905C20.3512 60.0654 20 59.2176 20 58.3335V21.6668C20 20.7828 20.3512 19.9349 20.9763 19.3098C21.6014 18.6847 22.4493 18.3335 23.3333 18.3335H30.205Z" fill="#9B9B9B" fill-opacity="0.2"/>
<path id="Vector_2" d="M50 25V28.3333H23.3333V25H50ZM35 33.3333V36.6667H23.3333V33.3333H35ZM30 41.6667V45H23.3333V41.6667H30Z" fill="#94A3B8"/>
<path id="Vector_3" d="M21.6667 63.3332C20.3913 63.3332 19.1641 62.846 18.2362 61.971C17.3083 61.0961 16.7498 59.8997 16.675 58.6265L16.6667 58.3332V21.6665C16.6666 20.3912 17.1539 19.164 18.0288 18.2361C18.9037 17.3082 20.1002 16.7497 21.3733 16.6748L21.6667 16.6665H53.3333C54.6087 16.6664 55.8359 17.1537 56.7638 18.0286C57.6917 18.9036 58.2502 20.1 58.325 21.3732L58.3333 21.6665V31.8648H55V21.6665C54.9999 21.2583 54.8501 20.8643 54.5788 20.5592C54.3075 20.2542 53.9338 20.0593 53.5283 20.0115L53.3333 19.9998H21.6667C21.2584 19.9999 20.8644 20.1498 20.5594 20.421C20.2543 20.6923 20.0594 21.0661 20.0117 21.4715L20 21.6665V58.3332C20.0001 58.7414 20.1499 59.1354 20.4212 59.4405C20.6925 59.7455 21.0662 59.9404 21.4717 59.9882L21.6667 59.9998H35V63.3332H21.6667Z" fill="#94A3B8"/>
<path id="Vector_4" d="M53.795 43.7332L53.945 43.8815L62.9017 53.7665C63.1876 54.0804 63.343 54.4916 63.336 54.9161C63.329 55.3407 63.1603 55.7466 62.8642 56.051C62.5682 56.3553 62.1671 56.5352 61.7429 56.5539C61.3187 56.5726 60.9033 56.4286 60.5817 56.1515L60.4317 56.0048L51.7167 46.3865L42.9017 56.1198C42.6168 56.4333 42.2233 56.6266 41.8011 56.6603C41.3789 56.6941 40.9596 56.5659 40.6286 56.3016C40.2975 56.0374 40.0794 55.6571 40.0187 55.2379C39.958 54.8187 40.0592 54.3921 40.3017 54.0448L40.4317 53.8815L49.3717 44.0148C49.6462 43.7117 50.0225 43.5202 50.4291 43.4765C50.8357 43.4329 51.2441 43.5402 51.5767 43.7782L51.59 43.7648C51.8648 43.5158 52.2147 43.3655 52.5845 43.3377C52.9543 43.3099 53.3228 43.4063 53.6317 43.6115L53.795 43.7348V43.7332Z" fill="#94A3B8"/>
<path id="Vector_5" d="M51.6667 33.3335C49.8986 33.3335 48.2029 34.0359 46.9526 35.2861C45.7024 36.5364 45 38.2321 45 40.0002C45 41.7683 45.7024 43.464 46.9526 44.7142C48.2029 45.9645 49.8986 46.6668 51.6667 46.6668C53.4348 46.6668 55.1305 45.9645 56.3807 44.7142C57.631 43.464 58.3333 41.7683 58.3333 40.0002C58.3333 38.2321 57.631 36.5364 56.3807 35.2861C55.1305 34.0359 53.4348 33.3335 51.6667 33.3335ZM51.6667 36.6668C52.5507 36.6668 53.3986 37.018 54.0237 37.6431C54.6488 38.2683 55 39.1161 55 40.0002C55 40.8842 54.6488 41.7321 54.0237 42.3572C53.3986 42.9823 52.5507 43.3335 51.6667 43.3335C50.7826 43.3335 49.9348 42.9823 49.3096 42.3572C48.6845 41.7321 48.3333 40.8842 48.3333 40.0002C48.3333 39.1161 48.6845 38.2683 49.3096 37.6431C49.9348 37.018 50.7826 36.6668 51.6667 36.6668Z" fill="#94A3B8"/>
<path id="Vector_6" d="M41.6667 55H61.6667C63.8889 55 65 56.1111 65 58.3333V61.6667C65 63.8889 63.8889 65 61.6667 65H41.6667C39.4444 65 38.3333 63.8889 38.3333 61.6667V58.3333C38.3333 56.1111 39.4444 55 41.6667 55Z" fill="#9B9B9B" fill-opacity="0.2"/>
<path id="Vector_7" d="M61.6667 53.3335H41.6667C40.3406 53.3335 39.0688 53.8603 38.1311 54.798C37.1935 55.7356 36.6667 57.0074 36.6667 58.3335V61.6668C36.6667 62.9929 37.1935 64.2647 38.1311 65.2024C39.0688 66.14 40.3406 66.6668 41.6667 66.6668H61.6667C62.9928 66.6668 64.2645 66.14 65.2022 65.2024C66.1399 64.2647 66.6667 62.9929 66.6667 61.6668V58.3335C66.6667 57.0074 66.1399 55.7356 65.2022 54.798C64.2645 53.8603 62.9928 53.3335 61.6667 53.3335ZM41.6667 56.6668H61.6667C61.8855 56.6668 62.1023 56.7099 62.3045 56.7937C62.5067 56.8775 62.6904 57.0002 62.8452 57.155C62.9999 57.3097 63.1227 57.4935 63.2065 57.6957C63.2902 57.8979 63.3333 58.1146 63.3333 58.3335V61.6668C63.3333 61.8857 63.2902 62.1024 63.2065 62.3046C63.1227 62.5068 62.9999 62.6906 62.8452 62.8453C62.6904 63.0001 62.5067 63.1229 62.3045 63.2066C62.1023 63.2904 61.8855 63.3335 61.6667 63.3335H41.6667C41.4478 63.3335 41.2311 63.2904 41.0289 63.2066C40.8267 63.1229 40.6429 63.0001 40.4882 62.8453C40.3334 62.6906 40.2106 62.5068 40.1269 62.3046C40.0431 62.1024 40 61.8857 40 61.6668V58.3335C40 58.1146 40.0431 57.8979 40.1269 57.6957C40.2106 57.4935 40.3334 57.3097 40.4882 57.155C40.6429 57.0002 40.8267 56.8775 41.0289 56.7937C41.2311 56.7099 41.4478 56.6668 41.6667 56.6668Z" fill="#94A3B8"/>
</g>
</svg>
