<svg width="24" height="24" viewBox="0 0 24 24" fill="none" xmlns="http://www.w3.org/2000/svg">
<g id="Icon">
<path id="Exclude" fill-rule="evenodd" clip-rule="evenodd" d="M12 1C5.92487 1 1 5.92487 1 12C1 18.0751 5.92487 23 12 23C18.0751 23 23 18.0751 23 12C23 5.92487 18.0751 1 12 1ZM11.365 15.245L16.115 10.495C16.455 10.155 16.455 9.605 16.115 9.255C15.775 8.915 15.215 8.915 14.875 9.255L10.745 13.385L8.995 11.635C8.655 11.295 8.095 11.295 7.755 11.635C7.415 11.975 7.415 12.525 7.755 12.875L10.135 15.245C10.305 15.415 10.525 15.495 10.745 15.495C10.975 15.495 11.195 15.415 11.365 15.245Z" fill="white"/>
</g>
</svg>
